<?xml version="1.0" encoding="utf-8"?>
<!-- Generator: Adobe Illustrator 24.3.0, SVG Export Plug-In . SVG Version: 6.00 Build 0)  -->
<svg version="1.1" id="Capa_1" xmlns="http://www.w3.org/2000/svg" xmlns:xlink="http://www.w3.org/1999/xlink" x="0px" y="0px"
	 viewBox="0 0 121.9 48" style="enable-background:new 0 0 121.9 48;" xml:space="preserve">
<style type="text/css">
	.st0{fill:#FFFFFF;fill-opacity:1.000000e-02;}
	.st1{fill-rule:evenodd;clip-rule:evenodd;fill:#FF3951;fill-opacity:1.000000e-02;}
	.st2{fill:#FFFFFF;}
	.st3{fill-rule:evenodd;clip-rule:evenodd;fill:#FF3951;}
	.st4{fill:#FF3951;}
	.st5{fill:#14142B;}
</style>
<g>
	<path class="st0" d="M40.2,7.7H7.5v30.1h32.6V7.7z"/>
	<path class="st1" d="M14.7,3h18.8c6.8,0,10.7,3.9,10.7,10.7v18.8c0,6.8-3.9,10.7-10.7,10.7H14.7C7.9,43.2,4,39.3,4,32.5V13.7
		C4,6.9,7.9,3,14.7,3z M24.2,34.9c0.9,0,1.6-0.6,1.7-1.5V12.9c0.1-0.6-0.2-1.2-0.8-1.6c-0.6-0.3-1.2-0.3-1.8,0
		c-0.5,0.3-0.8,1-0.8,1.6v20.5C22.6,34.3,23.4,34.9,24.2,34.9z M33.5,34.9c0.8,0,1.6-0.6,1.7-1.5v-6.6c0.1-0.6-0.2-1.2-0.8-1.6
		c-0.5-0.3-1.2-0.3-1.8,0c-0.5,0.3-0.8,0.9-0.8,1.6v6.6C31.9,34.3,32.6,34.9,33.5,34.9z M16.5,33.4c-0.1,0.9-0.8,1.5-1.7,1.5
		c-0.9,0-1.6-0.6-1.7-1.5V19.5c-0.1-0.6,0.2-1.2,0.8-1.6c0.5-0.3,1.2-0.3,1.8,0c0.5,0.3,0.8,1,0.8,1.6V33.4z"/>
</g>
<path class="st2" d="M40.2,7.7H7.5v30.1h32.6V7.7z"/>
<path class="st3" d="M14.7,3h18.8c6.8,0,10.7,3.9,10.7,10.7v18.8c0,6.8-3.9,10.7-10.7,10.7H14.7C7.9,43.2,4,39.3,4,32.5V13.7
	C4,6.9,7.9,3,14.7,3z M24.2,34.9c0.9,0,1.6-0.6,1.7-1.5V12.9c0.1-0.6-0.2-1.2-0.8-1.6c-0.6-0.3-1.2-0.3-1.8,0
	c-0.5,0.3-0.8,1-0.8,1.6v20.5C22.6,34.3,23.4,34.9,24.2,34.9z M33.5,34.9c0.8,0,1.6-0.6,1.7-1.5v-6.6c0.1-0.6-0.2-1.2-0.8-1.6
	c-0.5-0.3-1.2-0.3-1.8,0c-0.5,0.3-0.8,0.9-0.8,1.6v6.6C31.9,34.3,32.6,34.9,33.5,34.9z M16.5,33.4c-0.1,0.9-0.8,1.5-1.7,1.5
	c-0.9,0-1.6-0.6-1.7-1.5V19.5c-0.1-0.6,0.2-1.2,0.8-1.6c0.5-0.3,1.2-0.3,1.8,0c0.5,0.3,0.8,1,0.8,1.6V33.4z"/>
<path class="st2" d="M17.5,20.2c0-1.4-1.1-2.5-2.5-2.5c-1.4,0-2.5,1.1-2.5,2.5v12.5c0,1.4,1.1,2.5,2.5,2.5c1.4,0,2.5-1.1,2.5-2.5
	V20.2z"/>
<path class="st2" d="M26.7,13.5c0-1.4-1.1-2.5-2.5-2.5c-1.4,0-2.5,1.1-2.5,2.5v19.2c0,1.4,1.1,2.5,2.5,2.5c1.4,0,2.5-1.1,2.5-2.5
	V13.5z"/>
<path class="st2" d="M35.8,25.7c0-1.4-1.1-2.5-2.5-2.5c-1.4,0-2.5,1.1-2.5,2.5v7c0,1.4,1.1,2.5,2.5,2.5c1.4,0,2.5-1.1,2.5-2.5V25.7z
	"/>
<rect x="7.8" y="8" class="st2" width="32.2" height="29.7"/>
<path class="st3" d="M14.9,3.3h18.6c6.8,0,10.6,3.8,10.6,10.6v18.6c0,6.8-3.8,10.6-10.6,10.6H14.9C8.2,43,4.3,39.2,4.3,32.4V13.9
	C4.3,7.1,8.2,3.3,14.9,3.3z M24.3,34.8c0.9,0,1.6-0.6,1.6-1.5V13.1c0.1-0.6-0.2-1.2-0.8-1.6c-0.6-0.3-1.2-0.3-1.8,0
	c-0.5,0.3-0.8,1-0.8,1.6v20.2C22.8,34.2,23.5,34.8,24.3,34.8z M33.4,34.8c0.8,0,1.5-0.6,1.6-1.5v-6.5c0.1-0.6-0.2-1.2-0.8-1.6
	c-0.5-0.3-1.2-0.3-1.8,0c-0.5,0.3-0.8,0.9-0.8,1.6v6.5C31.9,34.2,32.6,34.8,33.4,34.8z M16.7,33.3c-0.1,0.9-0.8,1.5-1.6,1.5
	c-0.9,0-1.6-0.6-1.6-1.5V19.6c-0.1-0.6,0.2-1.2,0.8-1.6c0.5-0.3,1.2-0.3,1.7,0c0.5,0.3,0.8,1,0.8,1.6V33.3z"/>
<path class="st2" d="M15.1,17.7L15.1,17.7c1.4,0,2.5,1.1,2.5,2.5v12.4c0,1.4-1.1,2.5-2.5,2.5l0,0c-1.4,0-2.5-1.1-2.5-2.5V20.3
	C12.6,18.9,13.8,17.7,15.1,17.7z"/>
<g>
	<path class="st3" d="M15.1,3.3h18.5c6.7,0,10.5,3.8,10.5,10.5v18.5c0,6.7-3.8,10.5-10.5,10.5H15.1C8.3,42.8,4.5,39,4.5,32.3V13.8
		C4.5,7.1,8.3,3.3,15.1,3.3z M24.4,34.7c0.9,0,1.6-0.6,1.6-1.5V13c0.1-0.6-0.2-1.2-0.7-1.6c-0.6-0.3-1.2-0.3-1.8,0
		c-0.5,0.3-0.8,0.9-0.8,1.6v20.2C22.9,34,23.6,34.7,24.4,34.7z M33.5,34.7c0.8,0,1.5-0.6,1.6-1.5v-6.5c0.1-0.6-0.2-1.2-0.8-1.6
		c-0.5-0.3-1.2-0.3-1.8,0c-0.5,0.3-0.8,0.9-0.8,1.6v6.5C31.9,34,32.7,34.7,33.5,34.7z M16.8,33.2c-0.1,0.9-0.8,1.5-1.6,1.5
		c-0.9,0-1.6-0.6-1.6-1.5V19.5c-0.1-0.6,0.2-1.2,0.8-1.6c0.5-0.3,1.2-0.3,1.7,0c0.5,0.3,0.8,0.9,0.8,1.6V33.2z"/>
	<rect x="8" y="9.6" class="st4" width="32.3" height="27"/>
</g>
<g>
	<path class="st2" d="M20.9,31.3c1.1,0.2,2.1,0.5,3.2,0.7c1.3,0.3,2.7,0.6,4,0.9c0.5,0.1,0.8,0.5,0.8,0.9c0,0.4-0.3,0.8-0.8,0.9
		c-0.1,0-0.3,0-0.5,0c-2.4-0.5-4.9-1.1-7.3-1.6c-0.8-0.2-1.3-0.8-1.3-1.6c0-0.5,0-0.9,0-1.4c0-0.4-0.1-0.8-0.3-1
		c-0.6-0.7-1.1-1.4-1.7-2c-2-1.8-3.2-3.9-3.5-6.6C13,15.3,16,10.6,21,9c5.1-1.6,10.6,0.7,12.9,5.5c0.8,1.8,1.1,3.6,1,5.6
		c-0.2,2.9-1.5,5.2-3.7,7.1c-0.6,0.5-1.1,1.2-1.6,1.9c-0.2,0.3-0.3,0.6-0.3,1c0,0.2,0,0.4-0.1,0.7c-0.2,0.8-0.9,1.2-1.7,1
		c-1.3-0.3-2.6-0.6-3.8-0.9c-0.5-0.1-0.9-0.6-0.8-1.1c0.1-0.5,0.6-0.8,1.2-0.7c0.3,0.1,0.6,0.1,0.8,0.2c0.9,0.2,1.7,0.4,2.6,0.6
		c0.1-0.3,0.1-0.6,0.2-0.9c0.2-0.7,0.7-1.3,1.2-1.8c0.4-0.5,0.9-1,1.4-1.4c2-1.8,2.9-4.1,2.8-6.7c-0.1-2.6-1-4.7-3-6.4
		c-1.5-1.3-3.2-2-5.2-2.2c-4-0.3-7.8,2.1-9.1,5.9c-1.1,3.3-0.4,7.1,2.6,9.6c0.8,0.7,1.5,1.5,2,2.4c0.3,0.6,0.4,1.2,0.4,1.8
		C20.9,30.5,20.9,30.9,20.9,31.3z"/>
	<path class="st2" d="M27.8,37.6c-0.5-0.1-1.1-0.2-1.7-0.4c-1.9-0.4-3.8-0.9-5.7-1.3c-0.5-0.1-0.7-0.4-0.8-0.8
		c-0.1-0.4,0.1-0.7,0.4-0.9c0.3-0.2,0.6-0.2,0.9-0.1c1,0.2,2,0.4,2.9,0.7c1.4,0.3,2.9,0.7,4.3,1c0.5,0.1,0.8,0.5,0.7,1
		C28.7,37.3,28.3,37.6,27.8,37.6z"/>
</g>
<g>
	<path class="st5" d="M89.9,18.7c0-0.6,0-1.2,0-1.8c1.5,0,3,0,4.4,0c0,0.1,0,0.1,0,0.2c0,5.5,0,11.1,0,16.6c0,2.6-1.2,4.7-3.4,6.1
		c-2,1.3-4.2,1.8-6.6,1.6c-1.7-0.1-3.3-0.7-4.7-1.7c-1.2-0.9-2.1-2-2.5-3.5c0,0,0-0.1,0-0.1c1.3-0.7,2.7-1.3,4.1-2
		c0,0.1,0.1,0.1,0.1,0.2c0.6,1.8,2.1,2.7,3.9,2.8c1.1,0,2.2-0.2,3.1-0.9c0.8-0.7,1.2-1.5,1.3-2.6c0-0.6,0-1.2,0-1.9
		c-0.4,0.3-0.7,0.5-1.1,0.8c-1.2,0.7-2.4,0.9-3.8,0.9c-1.3,0-2.6-0.2-3.8-0.8c-2.4-1.1-3.9-2.8-4.6-5.3c-0.7-2.6-0.4-5.1,1.1-7.3
		c1.3-1.8,3.1-2.9,5.2-3.4c1.6-0.3,3.3-0.3,4.8,0.3c0.8,0.3,1.5,0.8,2.1,1.5C89.7,18.6,89.8,18.7,89.9,18.7
		C89.9,18.7,89.9,18.7,89.9,18.7z M89.6,24.6c0-1-0.5-2.2-1.8-3.1c-1.3-0.9-2.7-1-4.2-0.4c-2.7,1-3.3,4.2-2,6.1
		c0.9,1.3,2.1,1.8,3.6,1.9C87.7,29.2,89.6,27.5,89.6,24.6z"/>
	<path class="st5" d="M61,10.5c2.1,0,4.3,0,6.4,0c0.2,0,0.2,0.1,0.3,0.3c1.1,3.2,2.2,6.4,3.3,9.7c1.6,4.5,3.1,9.1,4.7,13.6
		c0,0.1,0.1,0.2,0.1,0.3c-0.1,0-0.2,0-0.2,0c-1.6,0-3.2,0-4.8,0c-0.2,0-0.3-0.1-0.3-0.2c-0.5-1.5-1-2.9-1.4-4.4
		c-0.1-0.2-0.1-0.3-0.4-0.3c-2.9,0-5.7,0-8.6,0c-0.2,0-0.3,0.1-0.3,0.3c-0.5,1.4-1,2.9-1.4,4.3c-0.1,0.2-0.1,0.3-0.4,0.3
		c-1.6,0-3.3,0-5,0C55.6,26.4,58.3,18.5,61,10.5z M61.2,25.2c2.1,0,4.2,0,6.3,0c-1-3.2-2.1-6.4-3.1-9.6c0,0,0,0-0.1,0
		C63.3,18.8,62.2,22,61.2,25.2z"/>
	<path class="st5" d="M112.4,16.9c1.4,0,2.7,0,4.1,0c0,1.4,0,2.8,0,4.2c-1.4,0-2.7,0-4.1,0c0,0.1,0,0.2,0,0.3c0,2.2,0,4.4,0,6.6
		c0,0.5,0.1,1,0.3,1.4c0.4,0.9,1.2,1.2,2,1.3c0.5,0,1,0,1.6,0c0.1,0,0.1,0,0.2,0c0,0.1,0,0.2,0,0.2c0,1.1,0,2.2,0,3.3
		c0,0.2-0.1,0.3-0.3,0.3c-1.2,0.1-2.4,0.2-3.6,0c-1.4-0.2-2.6-0.8-3.6-1.9c-0.8-0.9-1.2-2-1.4-3.1c-0.1-0.6-0.1-1.2-0.1-1.8
		c0-2.1,0-4.1,0-6.2c0-0.1,0-0.2,0-0.4c-1,0-2,0-3,0c0-1.4,0-2.8,0-4.1c0.3,0,0.6,0,0.9-0.1c1.3-0.2,2.1-1,2.1-2.4
		c0-0.9,0-1.7,0-2.6c0-0.1,0-0.1,0-0.2c1.6,0,3.2,0,4.8,0C112.4,13.4,112.4,15.1,112.4,16.9z"/>
	<path class="st5" d="M102.5,16.9c0,5.8,0,11.6,0,17.4c-1.6,0-3.2,0-4.8,0c0-5.8,0-11.6,0-17.4C99.3,16.9,100.9,16.9,102.5,16.9z"/>
	<path class="st5" d="M102.5,15.3c-1.6,0-3.2,0-4.7,0c0-1.6,0-3.2,0-4.8c1.6,0,3.2,0,4.7,0C102.5,12.1,102.5,13.7,102.5,15.3z"/>
</g>
</svg>
